# xmcd
#
# Track frame offsets:
#	150
#	15840
#	28150
#	52400
#	83365
#	91827
#	102827
#	135300
#	164675
#	185222
#	212362
#
# Disc length: 3130 seconds
#
# Revision: 1
# Processed by: cddbd v1.5.2PL0 Copyright (c) Steve Scherf et al.
# Submitted via: audiograbber 1.83.01
#
DISCID=860c380b
DTITLE=Diverse - Rhythm and Time
DYEAR=1995
DGENRE=
TTITLE0=Cultures - Emmanuel Sejourne
TTITLE1=Step Song - Ernst Ströer
TTITLE2=Desperate Giants - Ulrich Moritz
TTITLE3=Rolling Thunder - Roland Schaffer and Paramashivam
TTITLE4=Only Metal Sings The Blues - Ulrich Moritz
TTITLE5=Nancy - Robert van Sice
TTITLE6=Feliz Navidad - Patato
TTITLE7=Percussive Pyromania - Friedemanns Aquamarin Orchester
TTITLE8=Escape From Toyland - Ulrich Moritz
TTITLE9=Bihu - Kamalesh Maitra
TTITLE10=Blue - Noco Music
EXTD=
EXTT0=
EXTT1=
EXTT2=
EXTT3=
EXTT4=
EXTT5=
EXTT6=
EXTT7=
EXTT8=
EXTT9=
EXTT10=
PLAYORDER=
